<svg width="22" height="16" viewBox="0 0 22 16" fill="none" xmlns="http://www.w3.org/2000/svg">
<path fill-rule="evenodd" clip-rule="evenodd" d="M0 1.33333C0 0.979711 0.160519 0.640573 0.446244 0.390525C0.731969 0.140476 1.1195 0 1.52357 0H19.8064C20.2105 0 20.598 0.140476 20.8838 0.390525C21.1695 0.640573 21.33 0.979711 21.33 1.33333C21.33 1.68696 21.1695 2.02609 20.8838 2.27614C20.598 2.52619 20.2105 2.66667 19.8064 2.66667H1.52357C1.1195 2.66667 0.731969 2.52619 0.446244 2.27614C0.160519 2.02609 0 1.68696 0 1.33333ZM0 8C0 7.64638 0.160519 7.30724 0.446244 7.05719C0.731969 6.80714 1.1195 6.66667 1.52357 6.66667H19.8064C20.2105 6.66667 20.598 6.80714 20.8838 7.05719C21.1695 7.30724 21.33 7.64638 21.33 8C21.33 8.35362 21.1695 8.69276 20.8838 8.94281C20.598 9.19286 20.2105 9.33333 19.8064 9.33333H1.52357C1.1195 9.33333 0.731969 9.19286 0.446244 8.94281C0.160519 8.69276 0 8.35362 0 8ZM9.14143 14.6667C9.14143 14.313 9.30195 13.9739 9.58767 13.7239C9.8734 13.4738 10.2609 13.3333 10.665 13.3333H19.8064C20.2105 13.3333 20.598 13.4738 20.8838 13.7239C21.1695 13.9739 21.33 14.313 21.33 14.6667C21.33 15.0203 21.1695 15.3594 20.8838 15.6095C20.598 15.8595 20.2105 16 19.8064 16H10.665C10.2609 16 9.8734 15.8595 9.58767 15.6095C9.30195 15.3594 9.14143 15.0203 9.14143 14.6667Z" fill="white"/>
</svg>
